<svg width="25" height="21" viewBox="0 0 25 21" fill="none" xmlns="http://www.w3.org/2000/svg">
<path d="M22.7273 0H2.27273C1.02273 0 0 1.02273 0 2.27273V5.68182H2.27273V2.27273H22.7273V18.1818H14.7727V20.4545H22.7273C23.9773 20.4545 25 19.4318 25 18.1818V2.27273C25 1.02273 23.9773 0 22.7273 0ZM0 17.0455V20.4545H3.40909C3.40909 18.5682 1.88636 17.0455 0 17.0455ZM0 12.5V14.7727C3.13636 14.7727 5.68182 17.3182 5.68182 20.4545H7.95455C7.95455 16.0568 4.39773 12.5 0 12.5ZM0 7.95455V10.2273C1.34306 10.2273 2.67298 10.4918 3.91381 11.0058C5.15464 11.5197 6.28208 12.2731 7.23177 13.2228C8.18146 14.1725 8.9348 15.2999 9.44877 16.5407C9.96274 17.7816 10.2273 19.1115 10.2273 20.4545H12.5C12.5 13.5455 6.89773 7.95455 0 7.95455Z" fill="white"/>
</svg>
