<svg width="91" height="18" viewBox="0 0 91 18" fill="none" xmlns="http://www.w3.org/2000/svg">
<path d="M5.99371 17.2344C4.76454 17.2344 3.70725 16.974 2.82183 16.4531C1.94163 15.9271 1.26454 15.1979 0.790585 14.2656C0.321835 13.3333 0.0874596 12.2604 0.0874596 11.0469C0.0874596 9.81771 0.324439 8.73958 0.798397 7.8125C1.27756 6.88021 1.95725 6.15365 2.83746 5.63281C3.71767 5.10677 4.76454 4.84375 5.97808 4.84375C7.02496 4.84375 7.94163 5.03385 8.72808 5.41406C9.51454 5.79427 10.1369 6.32812 10.5953 7.01562C11.0536 7.70312 11.3062 8.51042 11.3531 9.4375H8.21246C8.12392 8.83854 7.88954 8.35677 7.50934 7.99219C7.13433 7.6224 6.64215 7.4375 6.03277 7.4375C5.51715 7.4375 5.06663 7.57812 4.68121 7.85937C4.301 8.13542 4.00413 8.53906 3.79058 9.07031C3.57704 9.60156 3.47027 10.2448 3.47027 11C3.47027 11.7656 3.57444 12.4167 3.78277 12.9531C3.99631 13.4896 4.29579 13.8984 4.68121 14.1797C5.06663 14.4609 5.51715 14.6016 6.03277 14.6016C6.41298 14.6016 6.75413 14.5234 7.05621 14.3672C7.3635 14.2109 7.61611 13.9844 7.81402 13.6875C8.01715 13.3854 8.14996 13.0234 8.21246 12.6016H11.3531C11.301 13.5182 11.051 14.3255 10.6031 15.0234C10.1604 15.7161 9.5484 16.2578 8.76715 16.6484C7.9859 17.0391 7.06142 17.2344 5.99371 17.2344ZM17.4721 10.0625V17H14.1439V1H17.3783V7.11719H17.5189C17.7898 6.40885 18.2273 5.85417 18.8314 5.45312C19.4356 5.04687 20.1934 4.84375 21.1049 4.84375C21.9382 4.84375 22.6648 5.02604 23.2846 5.39062C23.9096 5.75 24.3939 6.26823 24.7377 6.94531C25.0867 7.61719 25.2585 8.42187 25.2533 9.35937V17H21.9252V9.95312C21.9304 9.21354 21.7429 8.63802 21.3627 8.22656C20.9877 7.8151 20.4617 7.60937 19.7846 7.60937C19.3314 7.60937 18.9304 7.70573 18.5814 7.89844C18.2377 8.09115 17.9669 8.3724 17.7689 8.74219C17.5762 9.10677 17.4773 9.54688 17.4721 10.0625ZM28.5325 17V5H31.8606V17H28.5325ZM30.2043 3.45312C29.7095 3.45312 29.2851 3.28906 28.9309 2.96094C28.5819 2.6276 28.4075 2.22917 28.4075 1.76562C28.4075 1.30729 28.5819 0.914062 28.9309 0.585938C29.2851 0.252604 29.7095 0.0859367 30.2043 0.0859367C30.6991 0.0859367 31.121 0.252604 31.47 0.585938C31.8241 0.914062 32.0012 1.30729 32.0012 1.76562C32.0012 2.22917 31.8241 2.6276 31.47 2.96094C31.121 3.28906 30.6991 3.45312 30.2043 3.45312ZM38.5147 1V17H35.1866V1H38.5147ZM46.2626 17.1953C45.3512 17.1953 44.5256 16.9609 43.7861 16.4922C43.0517 16.0182 42.4683 15.3229 42.0361 14.4062C41.609 13.4844 41.3954 12.3542 41.3954 11.0156C41.3954 9.64062 41.6168 8.4974 42.0595 7.58594C42.5022 6.66927 43.0907 5.98437 43.8251 5.53125C44.5647 5.07292 45.3746 4.84375 46.2548 4.84375C46.9267 4.84375 47.4866 4.95833 47.9345 5.1875C48.3876 5.41146 48.7522 5.69271 49.0282 6.03125C49.3095 6.36458 49.523 6.69271 49.6689 7.01562H49.7704V1H53.0907V17H49.8095V15.0781H49.6689C49.5126 15.4115 49.2913 15.7422 49.0048 16.0703C48.7236 16.3932 48.3564 16.6615 47.9032 16.875C47.4553 17.0885 46.9084 17.1953 46.2626 17.1953ZM47.3173 14.5469C47.8538 14.5469 48.3069 14.401 48.6767 14.1094C49.0517 13.8125 49.3381 13.3984 49.5361 12.8672C49.7392 12.3359 49.8407 11.7135 49.8407 11C49.8407 10.2865 49.7418 9.66667 49.5439 9.14062C49.3459 8.61458 49.0595 8.20833 48.6845 7.92187C48.3095 7.63542 47.8538 7.49219 47.3173 7.49219C46.7704 7.49219 46.3095 7.64062 45.9345 7.9375C45.5595 8.23437 45.2756 8.64583 45.0829 9.17187C44.8902 9.69792 44.7939 10.3073 44.7939 11C44.7939 11.6979 44.8902 12.3151 45.0829 12.8516C45.2808 13.3828 45.5647 13.7995 45.9345 14.1016C46.3095 14.3984 46.7704 14.5469 47.3173 14.5469ZM56.4871 17V5H59.7136V7.09375H59.8386C60.0574 6.34896 60.4246 5.78646 60.9402 5.40625C61.4558 5.02083 62.0496 4.82812 62.7214 4.82812C62.8881 4.82812 63.0678 4.83854 63.2605 4.85937C63.4532 4.88021 63.6225 4.90885 63.7683 4.94531V7.89844C63.6121 7.85156 63.3959 7.8099 63.1199 7.77344C62.8438 7.73698 62.5912 7.71875 62.3621 7.71875C61.8725 7.71875 61.435 7.82552 61.0496 8.03906C60.6694 8.2474 60.3673 8.53906 60.1433 8.91406C59.9246 9.28906 59.8152 9.72135 59.8152 10.2109V17H56.4871ZM71.0592 17.2344C69.8248 17.2344 68.7623 16.9844 67.8717 16.4844C66.9863 15.9792 66.304 15.2656 65.8248 14.3437C65.3456 13.4167 65.106 12.3203 65.106 11.0547C65.106 9.82031 65.3456 8.73698 65.8248 7.80469C66.304 6.8724 66.9784 6.14583 67.8482 5.625C68.7232 5.10417 69.7493 4.84375 70.9264 4.84375C71.718 4.84375 72.455 4.97135 73.1373 5.22656C73.8248 5.47656 74.4238 5.85417 74.9342 6.35937C75.4498 6.86458 75.8508 7.5 76.1373 8.26562C76.4238 9.02604 76.567 9.91667 76.567 10.9375V11.8516H66.4342V9.78906H73.4342C73.4342 9.3099 73.33 8.88542 73.1217 8.51563C72.9133 8.14583 72.6243 7.85677 72.2545 7.64844C71.8899 7.4349 71.4654 7.32812 70.981 7.32812C70.4758 7.32812 70.0279 7.44531 69.6373 7.67969C69.2519 7.90885 68.9498 8.21875 68.731 8.60937C68.5123 8.99479 68.4003 9.42448 68.3951 9.89844V11.8594C68.3951 12.4531 68.5045 12.9661 68.7232 13.3984C68.9472 13.8307 69.2623 14.1641 69.6685 14.3984C70.0748 14.6328 70.5566 14.75 71.1139 14.75C71.4837 14.75 71.8222 14.6979 72.1295 14.5938C72.4368 14.4896 72.6998 14.3333 72.9185 14.125C73.1373 13.9167 73.304 13.6615 73.4185 13.3594L76.4967 13.5625C76.3404 14.3021 76.0201 14.9479 75.5357 15.5C75.0566 16.0469 74.4368 16.474 73.6764 16.7813C72.9212 17.0833 72.0488 17.2344 71.0592 17.2344ZM82.727 10.0625V17H79.3989V5H82.5707V7.11719H82.7114C82.977 6.41927 83.4223 5.86719 84.0473 5.46094C84.6723 5.04948 85.4301 4.84375 86.3207 4.84375C87.1541 4.84375 87.8806 5.02604 88.5004 5.39062C89.1202 5.75521 89.602 6.27604 89.9457 6.95312C90.2895 7.625 90.4614 8.42708 90.4614 9.35937V17H87.1332V9.95312C87.1384 9.21875 86.9509 8.64583 86.5707 8.23438C86.1905 7.81771 85.6671 7.60937 85.0004 7.60937C84.5525 7.60937 84.1567 7.70573 83.8129 7.89844C83.4744 8.09115 83.2088 8.3724 83.0161 8.74219C82.8286 9.10677 82.7322 9.54688 82.727 10.0625Z" fill="#E00F0D"/>
<path d="M2.82183 16.4531L1.28283 19.0283L1.29178 19.0336L1.30077 19.0389L2.82183 16.4531ZM0.790585 14.2656L-1.88972 15.6133L-1.88367 15.6252L0.790585 14.2656ZM0.798397 7.8125L-1.86982 6.44113L-1.87277 6.4469L0.798397 7.8125ZM2.83746 5.63281L4.36521 8.2147L4.37646 8.20798L2.83746 5.63281ZM8.72808 5.41406L10.0338 2.71313L10.0338 2.71313L8.72808 5.41406ZM10.5953 7.01562L8.09912 8.67972L10.5953 7.01562ZM11.3531 9.4375V12.4375H14.5086L14.3493 9.28601L11.3531 9.4375ZM8.21246 9.4375L5.24471 9.87621L5.62334 12.4375H8.21246V9.4375ZM7.50933 7.99219L5.4029 10.1283L5.41784 10.143L5.43297 10.1575L7.50933 7.99219ZM4.68121 7.85938L6.44375 10.287L6.44962 10.2827L4.68121 7.85938ZM3.78277 12.9531L0.986249 14.0392L0.990815 14.0509L0.99548 14.0626L3.78277 12.9531ZM4.68121 14.1797L6.44962 11.7563L6.44962 11.7563L4.68121 14.1797ZM7.05621 14.3672L5.69647 11.693L5.68719 11.6978L5.67794 11.7025L7.05621 14.3672ZM7.81402 13.6875L5.32447 12.0135L5.31787 12.0234L7.81402 13.6875ZM8.21246 12.6016V9.60156H5.62416L5.24485 12.1619L8.21246 12.6016ZM11.3531 12.6016L14.3483 12.7717L14.5284 9.60156H11.3531V12.6016ZM10.6031 15.0234L8.07832 13.4031L8.07524 13.4079L10.6031 15.0234ZM8.76715 16.6484L7.42551 13.9652L8.76715 16.6484ZM5.99371 14.2344C5.19391 14.2344 4.68413 14.068 4.3429 13.8673L1.30077 19.0389C2.73038 19.8799 4.33518 20.2344 5.99371 20.2344V14.2344ZM4.36084 13.878C3.97618 13.6481 3.68792 13.3449 3.46484 12.9061L-1.88367 15.6252C-1.15883 17.051 -0.0929269 18.2061 1.28283 19.0283L4.36084 13.878ZM3.47086 12.918C3.2441 12.467 3.08746 11.8687 3.08746 11.0469H-2.91254C-2.91254 12.6522 -2.60043 14.1997 -1.8897 15.6133L3.47086 12.918ZM3.08746 11.0469C3.08746 10.2071 3.24752 9.61243 3.46957 9.1781L-1.87277 6.4469C-2.59864 7.86674 -2.91254 9.4283 -2.91254 11.0469H3.08746ZM3.46661 9.18387C3.69408 8.74128 3.98426 8.44008 4.36519 8.21468L1.30973 3.05095C-0.0697536 3.86721 -1.13896 5.01914 -1.86981 6.44113L3.46661 9.18387ZM4.37646 8.20798C4.71234 8.00725 5.20624 7.84375 5.97809 7.84375V1.84375C4.32285 1.84375 2.723 2.20629 1.29846 3.05765L4.37646 8.20798ZM5.97809 7.84375C6.66138 7.84375 7.11594 7.96687 7.42234 8.11499L10.0338 2.71313C8.76731 2.10084 7.38855 1.84375 5.97809 1.84375V7.84375ZM7.42234 8.11499C7.75525 8.27594 7.95511 8.46371 8.09912 8.67972L13.0914 5.35152C12.3188 4.19254 11.2738 3.3126 10.0338 2.71313L7.42234 8.11499ZM8.09912 8.67972C8.22174 8.86365 8.33389 9.1337 8.35691 9.58899L14.3493 9.28601C14.2785 7.88713 13.8855 6.5426 13.0914 5.35152L8.09912 8.67972ZM11.3531 6.4375H8.21246V12.4375H11.3531V6.4375ZM11.1802 8.99879C11.0095 7.84428 10.5164 6.71933 9.5857 5.82684L5.43297 10.1575C5.36278 10.0902 5.30777 10.0117 5.27257 9.93935C5.23945 9.87128 5.23953 9.84118 5.24471 9.87621L11.1802 8.99879ZM9.61577 5.85608C8.59088 4.84543 7.29679 4.4375 6.03277 4.4375V10.4375C6.03352 10.4375 5.94419 10.4372 5.80395 10.3845C5.65562 10.3288 5.51436 10.2382 5.4029 10.1283L9.61577 5.85608ZM6.03277 4.4375C4.93571 4.4375 3.85385 4.74929 2.9128 5.436L6.44962 10.2827C6.37986 10.3337 6.29392 10.378 6.20204 10.4067C6.11248 10.4347 6.05022 10.4375 6.03277 10.4375V4.4375ZM2.91867 5.43173C1.991 6.10524 1.38486 7.01149 1.00704 7.95144L6.57413 10.1892C6.59991 10.125 6.61065 10.1187 6.59013 10.1466C6.56751 10.1774 6.52004 10.2316 6.44375 10.287L2.91867 5.43173ZM1.00704 7.95144C0.612878 8.93204 0.470272 9.97727 0.470272 11H6.47027C6.47027 10.5123 6.54121 10.2711 6.57413 10.1892L1.00704 7.95144ZM0.470272 11C0.470272 12.0214 0.607088 13.0628 0.986249 14.0392L6.5793 11.8671C6.54179 11.7705 6.47027 11.5099 6.47027 11H0.470272ZM0.99548 14.0626C1.37387 15.0132 1.98295 15.9245 2.9128 16.6031L6.44962 11.7563C6.52145 11.8087 6.56637 11.8602 6.58773 11.8894C6.60703 11.9157 6.59578 11.9082 6.57007 11.8436L0.99548 14.0626ZM2.9128 16.6031C3.85385 17.2898 4.93571 17.6016 6.03277 17.6016V11.6016C6.05022 11.6016 6.11248 11.6044 6.20205 11.6324C6.29392 11.661 6.37986 11.7054 6.44962 11.7563L2.9128 16.6031ZM6.03277 17.6016C6.83528 17.6016 7.65823 17.4333 8.43448 17.0318L5.67794 11.7025C5.75768 11.6613 5.83568 11.6343 5.9041 11.6187C5.97119 11.6033 6.01674 11.6016 6.03277 11.6016V17.6016ZM8.41595 17.0413C9.19895 16.6432 9.83689 16.0615 10.3102 15.3516L5.31787 12.0234C5.35152 11.9729 5.40233 11.9102 5.47306 11.8468C5.54421 11.7829 5.62115 11.7313 5.69647 11.693L8.41595 17.0413ZM10.3035 15.3615C10.7952 14.6303 11.0633 13.8296 11.1801 13.0412L5.24485 12.1619C5.24048 12.1914 5.23846 12.1864 5.24957 12.1561C5.26115 12.1245 5.28411 12.0736 5.32449 12.0135L10.3035 15.3615ZM8.21246 15.6016H11.3531V9.60156H8.21246V15.6016ZM8.35791 12.4314C8.33193 12.8888 8.2181 13.1853 8.07833 13.4031L13.1278 16.6438C13.8839 15.4658 14.2701 14.1477 14.3483 12.7717L8.35791 12.4314ZM8.07524 13.4079C7.94267 13.6153 7.7537 13.8011 7.42551 13.9652L10.1088 19.3317C11.3431 18.7146 12.3781 17.817 13.1309 16.639L8.07524 13.4079ZM7.42551 13.9652C7.14329 14.1063 6.6976 14.2344 5.99371 14.2344V20.2344C7.42524 20.2344 8.8285 19.9719 10.1088 19.3317L7.42551 13.9652ZM17.4721 10.0625L14.4722 10.0322L14.4721 10.0473V10.0625H17.4721ZM17.4721 17V20H20.4721V17H17.4721ZM14.1439 17H11.1439V20H14.1439V17ZM14.1439 1V-2H11.1439V1H14.1439ZM17.3783 1H20.3783V-2H17.3783V1ZM17.3783 7.11719H14.3783V10.1172H17.3783V7.11719ZM17.5189 7.11719V10.1172H19.5837L20.3211 8.1886L17.5189 7.11719ZM18.8314 5.45312L20.4906 7.95258L20.498 7.94764L20.5054 7.94265L18.8314 5.45312ZM23.2846 5.39062L21.7635 7.97643L21.7763 7.98395L21.7892 7.99134L23.2846 5.39062ZM24.7377 6.94531L22.0627 8.30339L22.069 8.31576L22.0754 8.32807L24.7377 6.94531ZM25.2533 9.35938L22.2534 9.34271L22.2533 9.35104V9.35938H25.2533ZM25.2533 17V20H28.2533V17H25.2533ZM21.9252 17H18.9252V20H21.9252V17ZM21.9252 9.95312L18.9253 9.932L18.9252 9.94256V9.95312H21.9252ZM21.3627 8.22656L19.1454 10.2474L19.1524 10.255L19.1594 10.2626L21.3627 8.22656ZM18.5814 7.89844L17.1312 5.27227L17.1228 5.27691L17.1144 5.2816L18.5814 7.89844ZM17.7689 8.74219L15.124 7.32656L15.1203 7.3334L15.1167 7.34027L17.7689 8.74219ZM14.4721 10.0625V17H20.4721V10.0625H14.4721ZM17.4721 14H14.1439V20H17.4721V14ZM17.1439 17V1H11.1439V17H17.1439ZM14.1439 4H17.3783V-2H14.1439V4ZM14.3783 1V7.11719H20.3783V1H14.3783ZM17.3783 10.1172H17.5189V4.11719H17.3783V10.1172ZM20.3211 8.1886C20.3797 8.03526 20.4316 7.99176 20.4906 7.95258L17.1723 2.95366C16.023 3.71658 15.1998 4.78245 14.7168 6.04578L20.3211 8.1886ZM20.5054 7.94265C20.5124 7.93795 20.5455 7.91637 20.6296 7.8938C20.7183 7.87005 20.8702 7.84375 21.1049 7.84375V1.84375C19.7476 1.84375 18.3682 2.14949 17.1575 2.96359L20.5054 7.94265ZM21.1049 7.84375C21.4895 7.84375 21.6737 7.92361 21.7635 7.97643L24.8056 2.80482C23.6558 2.12847 22.387 1.84375 21.1049 1.84375V7.84375ZM21.7892 7.99134C21.8809 8.04411 21.9682 8.11725 22.0627 8.30339L27.4127 5.58724C26.8197 4.41921 25.9382 3.45589 24.78 2.78991L21.7892 7.99134ZM22.0754 8.32807C22.1526 8.47672 22.2565 8.77802 22.2534 9.34271L28.2533 9.37604C28.2606 8.06573 28.0207 6.75765 27.4 5.56255L22.0754 8.32807ZM22.2533 9.35938V17H28.2533V9.35938H22.2533ZM25.2533 14H21.9252V20H25.2533V14ZM24.9252 17V9.95312H18.9252V17H24.9252ZM24.9251 9.97425C24.9339 8.72315 24.6115 7.32191 23.566 6.19056L19.1594 10.2626C19.0328 10.1256 18.9654 9.98614 18.936 9.8961C18.9105 9.81768 18.9261 9.81589 18.9253 9.932L24.9251 9.97425ZM23.58 6.20575C22.5159 5.03822 21.1082 4.60938 19.7846 4.60938V10.6094C19.8217 10.6094 19.7411 10.615 19.5942 10.5576C19.4345 10.4951 19.2731 10.3874 19.1454 10.2474L23.58 6.20575ZM19.7846 4.60938C18.8945 4.60938 17.9819 4.80248 17.1312 5.27227L20.0317 10.5246C19.9625 10.5628 19.8969 10.5861 19.8448 10.5986C19.7945 10.6107 19.7711 10.6094 19.7846 10.6094V4.60938ZM17.1144 5.2816C16.2389 5.77241 15.5737 6.48615 15.124 7.32656L20.4139 10.1578C20.3925 10.1979 20.3508 10.2628 20.2815 10.3348C20.2112 10.4079 20.1305 10.4693 20.0485 10.5153L17.1144 5.2816ZM15.1167 7.34027C14.6514 8.22057 14.4811 9.15548 14.4722 10.0322L20.4719 10.0928C20.4727 10.0168 20.48 9.99092 20.4771 10.0038C20.4738 10.0187 20.4599 10.0709 20.4212 10.1441L15.1167 7.34027ZM28.5325 17H25.5325V20H28.5325V17ZM28.5325 5V2H25.5325V5H28.5325ZM31.8606 5H34.8606V2H31.8606V5ZM31.8606 17V20H34.8606V17H31.8606ZM28.9309 2.96094L26.8587 5.13027L26.8752 5.14607L26.892 5.16162L28.9309 2.96094ZM28.9309 0.585938L30.986 2.7715L30.987 2.77054L28.9309 0.585938ZM31.47 0.585938L29.3978 2.75527L29.4143 2.77107L29.4311 2.78662L31.47 0.585938ZM31.47 2.96094L33.525 5.14649L33.5261 5.14554L31.47 2.96094ZM31.5325 17V5H25.5325V17H31.5325ZM28.5325 8H31.8606V2H28.5325V8ZM28.8606 5V17H34.8606V5H28.8606ZM31.8606 14H28.5325V20H31.8606V14ZM30.2043 0.453125C30.2944 0.453125 30.4347 0.469305 30.5964 0.531815C30.7594 0.59481 30.8856 0.682255 30.9698 0.760253L26.892 5.16162C27.8159 6.01754 28.9743 6.45312 30.2043 6.45312V0.453125ZM31.0031 0.791604C31.0841 0.868984 31.1979 1.00657 31.2864 1.20871C31.376 1.41346 31.4075 1.61081 31.4075 1.76562H25.4075C25.4075 3.08571 25.9445 4.25702 26.8587 5.13027L31.0031 0.791604ZM31.4075 1.76562C31.4075 1.92773 31.3742 2.13251 31.2805 2.34368C31.1881 2.55192 31.0697 2.69275 30.986 2.7715L26.8758 -1.59962C25.9545 -0.733283 25.4075 0.43854 25.4075 1.76562H31.4075ZM30.987 2.77054C30.9045 2.84815 30.7779 2.93799 30.6113 3.0034C30.4456 3.06845 30.3001 3.08594 30.2043 3.08594V-2.91406C28.9601 -2.91406 27.7961 -2.46576 26.8748 -1.59866L30.987 2.77054ZM30.2043 3.08594C30.1088 3.08594 29.9602 3.06851 29.7895 3.00109C29.6175 2.93314 29.4853 2.83893 29.3978 2.75527L33.5422 -1.58339C32.6195 -2.4647 31.4493 -2.91406 30.2043 -2.91406V3.08594ZM29.4311 2.78662C29.3487 2.71027 29.228 2.5699 29.133 2.3588C29.0363 2.14415 29.0012 1.93403 29.0012 1.76562H35.0012C35.0012 0.422986 34.439 -0.752999 33.5088 -1.61475L29.4311 2.78662ZM29.0012 1.76562C29.0012 1.6046 29.0344 1.40194 29.127 1.19369C29.2181 0.988637 29.3341 0.851404 29.4139 0.776335L33.5261 5.14554C34.4493 4.27664 35.0012 3.10104 35.0012 1.76562H29.0012ZM29.4149 0.775381C29.5043 0.691306 29.6361 0.599547 29.8045 0.534064C29.9712 0.469247 30.1145 0.453125 30.2043 0.453125V6.45312C31.435 6.45312 32.5997 6.01658 33.525 5.14649L29.4149 0.775381ZM38.5147 1H41.5147V-2H38.5147V1ZM38.5147 17V20H41.5147V17H38.5147ZM35.1866 17H32.1866V20H35.1866V17ZM35.1866 1V-2H32.1866V1H35.1866ZM35.5147 1V17H41.5147V1H35.5147ZM38.5147 14H35.1866V20H38.5147V14ZM38.1866 17V1H32.1866V17H38.1866ZM35.1866 4H38.5147V-2H35.1866V4ZM43.7861 16.4922L42.1593 19.0128L42.1696 19.0195L42.18 19.0261L43.7861 16.4922ZM42.0361 14.4062L39.314 15.6673L39.3183 15.6766L39.3226 15.6859L42.0361 14.4062ZM42.0595 7.58594L44.758 8.89665L44.7609 8.89061L42.0595 7.58594ZM43.8251 5.53125L45.4004 8.08436L45.4054 8.08128L43.8251 5.53125ZM47.9345 5.1875L46.5681 7.85824L46.5866 7.86772L46.6052 7.87694L47.9345 5.1875ZM49.0282 6.03125L46.7032 7.92707L46.7191 7.9466L46.7354 7.96586L49.0282 6.03125ZM49.6689 7.01562L46.9348 8.25039L47.732 10.0156H49.6689V7.01562ZM49.7704 7.01562V10.0156H52.7704V7.01562H49.7704ZM49.7704 1V-2H46.7704V1H49.7704ZM53.0907 1H56.0907V-2H53.0907V1ZM53.0907 17V20H56.0907V17H53.0907ZM49.8095 17H46.8095V20H49.8095V17ZM49.8095 15.0781H52.8095V12.0781H49.8095V15.0781ZM49.6689 15.0781V12.0781H47.7619L46.9525 13.8048L49.6689 15.0781ZM49.0048 16.0703L46.7449 14.0973L46.7426 14.1L49.0048 16.0703ZM47.9032 16.875L46.6243 14.1612L46.6122 14.167L47.9032 16.875ZM48.6767 14.1094L50.5345 16.4649L50.5388 16.4615L48.6767 14.1094ZM49.5361 12.8672L46.7339 11.7958L46.7293 11.8078L46.7248 11.8199L49.5361 12.8672ZM49.5439 9.14062L52.3517 8.08421V8.08421L49.5439 9.14062ZM48.6845 7.92188L50.5056 5.53786L48.6845 7.92188ZM45.9345 7.9375L44.0724 5.58536L44.0724 5.58536L45.9345 7.9375ZM45.0829 12.8516L42.2596 13.8658L42.2655 13.8824L42.2717 13.8989L45.0829 12.8516ZM45.9345 14.1016L44.0366 16.4249L44.0544 16.4394L44.0724 16.4537L45.9345 14.1016ZM46.2626 14.1953C45.8954 14.1953 45.631 14.1097 45.3921 13.9583L42.18 19.0261C43.4202 19.8121 44.8069 20.1953 46.2626 20.1953V14.1953ZM45.4128 13.9716C45.2206 13.8475 44.9815 13.6186 44.7495 13.1266L39.3226 15.6859C39.9552 17.0272 40.8827 18.189 42.1593 19.0128L45.4128 13.9716ZM44.7581 13.1452C44.5625 12.723 44.3954 12.0507 44.3954 11.0156H38.3954C38.3954 12.6576 38.6554 14.2458 39.314 15.6673L44.7581 13.1452ZM44.3954 11.0156C44.3954 9.941 44.5714 9.28085 44.758 8.89665L39.361 6.27523C38.6622 7.71395 38.3954 9.34025 38.3954 11.0156H44.3954ZM44.7609 8.89061C45.0003 8.39493 45.2346 8.18671 45.4004 8.08436L42.2498 2.97814C40.9469 3.78204 40.0041 4.94361 39.358 6.28126L44.7609 8.89061ZM45.4054 8.08128C45.6646 7.92068 45.9261 7.84375 46.2548 7.84375V1.84375C44.8231 1.84375 43.4648 2.22516 42.2448 2.98122L45.4054 8.08128ZM46.2548 7.84375C46.6041 7.84375 46.6607 7.90564 46.5681 7.85824L49.3009 2.51676C48.3124 2.01102 47.2493 1.84375 46.2548 1.84375V7.84375ZM46.6052 7.87694C46.6712 7.90953 46.7044 7.93328 46.7154 7.94175C46.7254 7.94951 46.7181 7.94535 46.7032 7.92707L51.3533 4.13543C50.7665 3.4158 50.0416 2.88253 49.2638 2.49806L46.6052 7.87694ZM46.7354 7.96586C46.8774 8.13418 46.9257 8.2303 46.9348 8.25039L52.403 5.78086C52.1204 5.15512 51.7416 4.59498 51.3211 4.09664L46.7354 7.96586ZM49.6689 10.0156H49.7704V4.01562H49.6689V10.0156ZM52.7704 7.01562V1H46.7704V7.01562H52.7704ZM49.7704 4H53.0907V-2H49.7704V4ZM50.0907 1V17H56.0907V1H50.0907ZM53.0907 14H49.8095V20H53.0907V14ZM52.8095 17V15.0781H46.8095V17H52.8095ZM49.8095 12.0781H49.6689V18.0781H49.8095V12.0781ZM46.9525 13.8048C46.9344 13.8435 46.8799 13.9426 46.7449 14.0973L51.2648 18.0433C51.7026 17.5418 52.0909 16.9795 52.3852 16.3514L46.9525 13.8048ZM46.7426 14.1C46.7575 14.0828 46.763 14.0808 46.7489 14.0912C46.7338 14.1022 46.6956 14.1277 46.6243 14.1613L49.1821 19.5887C49.9479 19.2279 50.6706 18.7254 51.267 18.0407L46.7426 14.1ZM46.6122 14.167C46.67 14.1395 46.5912 14.1953 46.2626 14.1953V20.1953C47.2257 20.1953 48.2407 20.0376 49.1943 19.583L46.6122 14.167ZM47.3173 17.5469C48.4293 17.5469 49.563 17.2312 50.5345 16.4649L46.8188 11.7539C46.9176 11.676 47.0305 11.6171 47.1404 11.5818C47.2459 11.5478 47.3126 11.5469 47.3173 11.5469V17.5469ZM50.5388 16.4615C51.4172 15.7661 51.9939 14.8632 52.3473 13.9145L46.7248 11.8199C46.702 11.881 46.6908 11.8908 46.7056 11.8693C46.7222 11.8455 46.7576 11.8023 46.8146 11.7572L50.5388 16.4615ZM52.3382 13.9386C52.7007 12.9906 52.8407 11.9902 52.8407 11H46.8407C46.8407 11.4369 46.7777 11.6813 46.7339 11.7958L52.3382 13.9386ZM52.8407 11C52.8407 10.0187 52.7058 9.02527 52.3517 8.08421L46.736 10.197C46.7778 10.3081 46.8407 10.5543 46.8407 11H52.8407ZM52.3517 8.08421C51.994 7.13352 51.4065 6.22604 50.5056 5.53786L46.8634 10.3059C46.7959 10.2544 46.7519 10.2029 46.7288 10.1702C46.7076 10.1402 46.7153 10.1419 46.736 10.197L52.3517 8.08421ZM50.5056 5.53786C49.5372 4.79814 48.4176 4.49219 47.3173 4.49219V10.4922C47.3174 10.4922 47.2585 10.4919 47.162 10.4616C47.0614 10.43 46.9564 10.377 46.8634 10.3059L50.5056 5.53786ZM47.3173 4.49219C46.1963 4.49219 45.0521 4.80979 44.0724 5.58536L47.7966 10.2896C47.699 10.3669 47.588 10.4247 47.481 10.4591C47.3787 10.492 47.3163 10.4922 47.3173 10.4922V4.49219ZM44.0724 5.58536C43.1937 6.28095 42.616 7.18445 42.266 8.13993L47.8999 10.2038C47.9195 10.1503 47.9276 10.1464 47.9097 10.1723C47.8902 10.2006 47.853 10.245 47.7966 10.2896L44.0724 5.58536ZM42.266 8.13993C41.9274 9.06431 41.7939 10.0354 41.7939 11H47.7939C47.7939 10.5791 47.8531 10.3315 47.8999 10.2038L42.266 8.13993ZM41.7939 11C41.7939 11.9687 41.9271 12.9402 42.2596 13.8658L47.9063 11.8373C47.8534 11.69 47.7939 11.4271 47.7939 11H41.7939ZM42.2717 13.8989C42.6204 14.835 43.1833 15.7278 44.0366 16.4249L47.8324 11.7782C47.8565 11.7979 47.8766 11.8174 47.8927 11.8351C47.9087 11.8527 47.9187 11.8663 47.9236 11.8735C47.9334 11.8878 47.919 11.871 47.8942 11.8042L42.2717 13.8989ZM44.0724 16.4537C45.0521 17.2293 46.1963 17.5469 47.3173 17.5469V11.5469C47.3163 11.5469 47.3787 11.547 47.481 11.58C47.588 11.6144 47.699 11.6722 47.7966 11.7494L44.0724 16.4537ZM56.4871 17H53.4871V20H56.4871V17ZM56.4871 5V2H53.4871V5H56.4871ZM59.7136 5H62.7136V2H59.7136V5ZM59.7136 7.09375H56.7136V10.0938H59.7136V7.09375ZM59.8386 7.09375V10.0938H62.0842L62.717 7.93916L59.8386 7.09375ZM60.9402 5.40625L62.7206 7.82081L62.7285 7.81501L62.7363 7.80916L60.9402 5.40625ZM63.2605 4.85937L63.583 1.87675L63.5829 1.87675L63.2605 4.85937ZM63.7683 4.94531H66.7683V2.60297L64.4959 2.03488L63.7683 4.94531ZM63.7683 7.89844L62.9063 10.7719L66.7683 11.9305V7.89844H63.7683ZM63.1199 7.77344L62.7271 10.7476L63.1199 7.77344ZM61.0496 8.03906L62.4912 10.67L62.5035 10.6632L61.0496 8.03906ZM60.1433 8.91406L57.5677 7.37584L57.5598 7.3891L57.552 7.40245L60.1433 8.91406ZM59.8152 17V20H62.8152V17H59.8152ZM59.4871 17V5H53.4871V17H59.4871ZM56.4871 8H59.7136V2H56.4871V8ZM56.7136 5V7.09375H62.7136V5H56.7136ZM59.7136 10.0938H59.8386V4.09375H59.7136V10.0938ZM62.717 7.93916C62.7564 7.8053 62.7895 7.75418 62.7902 7.75315C62.7905 7.7527 62.7846 7.76176 62.771 7.7762C62.7573 7.79083 62.7401 7.80641 62.7206 7.82081L59.1598 2.99169C58.0123 3.83779 57.3235 5.0113 56.9602 6.24834L62.717 7.93916ZM62.7363 7.80916C62.7396 7.80672 62.7367 7.8092 62.728 7.81374C62.7191 7.81835 62.7088 7.82275 62.6984 7.82613C62.688 7.82947 62.6824 7.83028 62.6838 7.83007C62.6853 7.82984 62.6972 7.82812 62.7214 7.82812V1.82812C61.4324 1.82812 60.202 2.21255 59.1441 3.00334L62.7363 7.80916ZM62.7214 7.82812C62.7647 7.82812 62.8357 7.83093 62.9381 7.842L63.5829 1.87675C63.2999 1.84616 63.0115 1.82812 62.7214 1.82812V7.82812ZM62.938 7.84199C62.9822 7.84677 63.0128 7.85128 63.0314 7.85443C63.0503 7.85762 63.0525 7.85868 63.0407 7.85574L64.4959 2.03488C64.1852 1.9572 63.8754 1.90837 63.583 1.87675L62.938 7.84199ZM60.7683 4.94531V7.89844H66.7683V4.94531H60.7683ZM64.6304 5.02496C64.2506 4.91104 63.8534 4.84426 63.5127 4.79926L62.7271 10.7476C62.821 10.76 62.8839 10.7706 62.9212 10.7778C62.9618 10.7856 62.9516 10.7855 62.9063 10.7719L64.6304 5.02496ZM63.5127 4.79926C63.133 4.74912 62.7469 4.71875 62.3621 4.71875V10.7188C62.4355 10.7188 62.5547 10.7248 62.7271 10.7476L63.5127 4.79926ZM62.3621 4.71875C61.4215 4.71875 60.4739 4.92833 59.5956 5.41492L62.5035 10.6632C62.4575 10.6887 62.4129 10.7048 62.378 10.7133C62.3447 10.7214 62.3363 10.7188 62.3621 10.7188V4.71875ZM59.608 5.40813C58.7555 5.87523 58.0634 6.54573 57.5677 7.37584L62.7189 10.4523C62.7006 10.4831 62.6687 10.5268 62.6216 10.5723C62.5744 10.6178 62.5276 10.65 62.4912 10.67L59.608 5.40813ZM57.552 7.40245C57.0327 8.29259 56.8152 9.25944 56.8152 10.2109H62.8152C62.8152 10.1903 62.8174 10.2088 62.8056 10.2554C62.7933 10.3039 62.7705 10.3642 62.7347 10.4257L57.552 7.40245ZM56.8152 10.2109V17H62.8152V10.2109H56.8152ZM59.8152 14H56.4871V20H59.8152V14ZM67.8717 16.4844L66.3849 19.09L66.394 19.0952L66.4031 19.1003L67.8717 16.4844ZM65.8248 14.3438L63.1597 15.7212L63.1629 15.7273L65.8248 14.3438ZM65.8248 7.80469L63.1566 6.43332L65.8248 7.80469ZM67.8482 5.625L66.3138 3.04711L66.307 3.05116L67.8482 5.625ZM73.1373 5.22656L72.0863 8.03643L72.0992 8.04125L72.1121 8.04594L73.1373 5.22656ZM74.9342 6.35938L72.8238 8.49155L72.8292 8.4969L72.8346 8.50223L74.9342 6.35938ZM76.1373 8.26562L73.3275 9.3169L73.3299 9.32321L76.1373 8.26562ZM76.567 11.8516V14.8516H79.567V11.8516H76.567ZM66.4342 11.8516H63.4342V14.8516H66.4342V11.8516ZM66.4342 9.78906V6.78906H63.4342V9.78906H66.4342ZM73.4342 9.78906V12.7891H76.4342V9.78906H73.4342ZM73.1217 8.51562L70.5079 9.98815L70.5079 9.98816L73.1217 8.51562ZM72.2545 7.64844L70.7383 10.2371L70.76 10.2498L70.782 10.2622L72.2545 7.64844ZM69.6373 7.67969L71.1705 10.2583L71.1808 10.2522L69.6373 7.67969ZM68.731 8.60938L71.3401 10.0902L71.3444 10.0827L71.3486 10.0752L68.731 8.60938ZM68.3951 9.89844L65.3953 9.86547L65.3951 9.88195V9.89844H68.3951ZM68.7232 13.3984L66.0464 14.753L66.0529 14.7657L66.0595 14.7785L68.7232 13.3984ZM72.1295 14.5938L71.1664 11.7526L72.1295 14.5938ZM72.9185 14.125L70.8496 11.9526L70.8496 11.9526L72.9185 14.125ZM73.4185 13.3594L73.6161 10.3659L71.4009 10.2197L70.6136 12.2954L73.4185 13.3594ZM76.4967 13.5625L79.4319 14.1826L80.1472 10.7969L76.6942 10.569L76.4967 13.5625ZM75.5357 15.5L73.2806 13.5215L73.2793 13.523L75.5357 15.5ZM73.6764 16.7812L74.7905 19.5667L74.8004 19.5627L73.6764 16.7812ZM71.0592 14.2344C70.2323 14.2344 69.6976 14.069 69.3403 13.8684L66.4031 19.1003C67.827 19.8997 69.4173 20.2344 71.0592 20.2344V14.2344ZM69.3584 13.8787C68.9842 13.6652 68.7052 13.3806 68.4867 12.9602L63.1629 15.7273C63.9027 17.1507 64.9883 18.2932 66.3849 19.09L69.3584 13.8787ZM68.4899 12.9663C68.2728 12.5464 68.106 11.9418 68.106 11.0547H62.106C62.106 12.6988 62.4184 14.287 63.1597 15.7212L68.4899 12.9663ZM68.106 11.0547C68.106 10.2128 68.2675 9.61484 68.493 9.17606L63.1566 6.43332C62.4238 7.85912 62.106 9.42781 62.106 11.0547H68.106ZM68.493 9.17606C68.7253 8.72415 69.0171 8.42181 69.3895 8.19884L66.307 3.05116C64.9398 3.86985 63.8827 5.02064 63.1566 6.43332L68.493 9.17606ZM69.3827 8.20288C69.7252 7.99902 70.2039 7.84375 70.9264 7.84375V1.84375C69.2946 1.84375 67.7213 2.20931 66.3138 3.04712L69.3827 8.20288ZM70.9264 7.84375C71.3904 7.84375 71.7682 7.91745 72.0863 8.03643L74.1883 2.41669C73.1418 2.02526 72.0457 1.84375 70.9264 1.84375V7.84375ZM72.1121 8.04594C72.4003 8.15075 72.6271 8.29687 72.8238 8.49155L77.0446 4.2272C76.2204 3.41147 75.2493 2.80237 74.1625 2.40718L72.1121 8.04594ZM72.8346 8.50223C72.9973 8.66161 73.1746 8.90812 73.3275 9.3169L78.9471 7.21435C78.5271 6.09188 77.9023 5.06756 77.0337 4.21652L72.8346 8.50223ZM73.3299 9.32321C73.461 9.67135 73.567 10.1891 73.567 10.9375H79.567C79.567 9.64428 79.3865 8.38073 78.9447 7.20804L73.3299 9.32321ZM73.567 10.9375V11.8516H79.567V10.9375H73.567ZM76.567 8.85156H66.4342V14.8516H76.567V8.85156ZM69.4342 11.8516V9.78906H63.4342V11.8516H69.4342ZM66.4342 12.7891H73.4342V6.78906H66.4342V12.7891ZM76.4342 9.78906C76.4342 8.86168 76.2282 7.91785 75.7354 7.04309L70.5079 9.98816C70.4742 9.92833 70.4535 9.87111 70.4425 9.82631C70.4319 9.78332 70.4342 9.76752 70.4342 9.78906H76.4342ZM75.7354 7.0431C75.2581 6.1958 74.5743 5.51204 73.727 5.03469L70.782 10.2622C70.7383 10.2376 70.6829 10.1984 70.6273 10.1428C70.5717 10.0872 70.5325 10.0318 70.5079 9.98815L75.7354 7.0431ZM73.7707 5.05979C72.8823 4.53945 71.9191 4.32812 70.981 4.32812V10.3281C71.0024 10.3281 70.9818 10.3304 70.9309 10.3176C70.8778 10.3042 70.8097 10.2789 70.7383 10.2371L73.7707 5.05979ZM70.981 4.32812C69.9931 4.32812 69.0003 4.5633 68.0938 5.10721L71.1808 10.2522C71.1277 10.284 71.0727 10.306 71.0255 10.3183C70.9802 10.3302 70.9616 10.3281 70.981 10.3281V4.32812ZM68.1041 5.10108C67.2665 5.59908 66.5901 6.29247 66.1135 7.14356L71.3486 10.0752C71.3341 10.101 71.3083 10.1386 71.2699 10.1781C71.2315 10.2175 71.1949 10.2438 71.1705 10.2583L68.1041 5.10108ZM66.122 7.12856C65.6351 7.98637 65.4057 8.92003 65.3953 9.86547L71.3949 9.9314C71.395 9.92228 71.3956 9.9404 71.386 9.97725C71.3762 10.0151 71.3601 10.0549 71.3401 10.0902L66.122 7.12856ZM65.3951 9.89844V11.8594H71.3951V9.89844H65.3951ZM65.3951 11.8594C65.3951 12.8193 65.5726 13.8166 66.0464 14.753L71.4 12.0439C71.4364 12.1157 71.3951 12.087 71.3951 11.8594H65.3951ZM66.0595 14.7785C66.5366 15.6995 67.2469 16.4648 68.1694 16.997L71.1677 11.7999C71.2107 11.8247 71.261 11.8624 71.3076 11.9118C71.3537 11.9605 71.3782 12.0014 71.387 12.0184L66.0595 14.7785ZM68.1694 16.997C69.1105 17.54 70.1297 17.75 71.1139 17.75V11.75C71.0451 11.75 71.0258 11.7428 71.0436 11.7471C71.0525 11.7493 71.0692 11.754 71.0917 11.7629C71.1143 11.7718 71.1402 11.784 71.1677 11.7999L68.1694 16.997ZM71.1139 17.75C71.7661 17.75 72.4351 17.6578 73.0926 17.4349L71.1664 11.7526C71.1867 11.7457 71.1955 11.7448 71.1889 11.7458C71.182 11.7469 71.158 11.75 71.1139 11.75V17.75ZM73.0926 17.4349C73.7816 17.2014 74.4302 16.8282 74.9875 16.2974L70.8496 11.9526C70.9694 11.8384 71.0919 11.7778 71.1664 11.7526L73.0926 17.4349ZM74.9875 16.2974C75.5538 15.7581 75.961 15.1155 76.2235 14.4233L70.6136 12.2954C70.6469 12.2074 70.7208 12.0752 70.8496 11.9526L74.9875 16.2974ZM73.221 16.3529L76.2991 16.556L76.6942 10.569L73.6161 10.3659L73.221 16.3529ZM73.5615 12.9424C73.5084 13.1937 73.4153 13.368 73.2806 13.5215L77.7908 17.4785C78.6249 16.5279 79.1725 15.4105 79.4319 14.1826L73.5615 12.9424ZM73.2793 13.523C73.1471 13.6739 72.9338 13.8456 72.5523 13.9998L74.8004 19.5627C75.9398 19.1023 76.966 18.4199 77.7921 17.477L73.2793 13.523ZM72.5622 13.9958C72.229 14.1291 71.7475 14.2344 71.0592 14.2344V20.2344C72.35 20.2344 73.6133 20.0376 74.7905 19.5667L72.5622 13.9958ZM82.727 10.0625L79.7271 10.0322L79.727 10.0473V10.0625H82.727ZM82.727 17V20H85.727V17H82.727ZM79.3989 17H76.3989V20H79.3989V17ZM79.3989 5V2H76.3989V5H79.3989ZM82.5707 5H85.5707V2H82.5707V5ZM82.5707 7.11719H79.5707V10.1172H82.5707V7.11719ZM82.7114 7.11719V10.1172H84.7795L85.5152 8.1843L82.7114 7.11719ZM84.0473 5.46094L85.6823 7.97627L85.6896 7.9715L85.6969 7.96668L84.0473 5.46094ZM88.5004 5.39062L90.0215 2.80482L88.5004 5.39062ZM89.9457 6.95312L87.2707 8.31121L87.275 8.31955L89.9457 6.95312ZM90.4614 17V20H93.4614V17H90.4614ZM87.1332 17H84.1332V20H87.1332V17ZM87.1332 9.95312L84.1333 9.93185L84.1332 9.94249V9.95312H87.1332ZM86.5707 8.23438L84.3547 10.2565L84.361 10.2635L84.3674 10.2704L86.5707 8.23438ZM83.8129 7.89844L82.3459 5.28159L82.3374 5.28639L82.3288 5.29124L83.8129 7.89844ZM83.0161 8.74219L80.3556 7.35577L80.3519 7.36295L80.3482 7.37014L83.0161 8.74219ZM79.727 10.0625V17H85.727V10.0625H79.727ZM82.727 14H79.3989V20H82.727V14ZM82.3989 17V5H76.3989V17H82.3989ZM79.3989 8H82.5707V2H79.3989V8ZM79.5707 5V7.11719H85.5707V5H79.5707ZM82.5707 10.1172H82.7114V4.11719H82.5707V10.1172ZM85.5152 8.1843C85.555 8.07968 85.5916 8.03522 85.6823 7.97627L82.4123 2.94561C81.253 3.69915 80.399 4.75886 79.9076 6.05007L85.5152 8.1843ZM85.6969 7.96668C85.7454 7.93478 85.9031 7.84375 86.3207 7.84375V1.84375C84.9571 1.84375 83.5992 2.16417 82.3977 2.95519L85.6969 7.96668ZM86.3207 7.84375C86.7053 7.84375 86.8896 7.92361 86.9794 7.97643L90.0215 2.80482C88.8717 2.12847 87.6028 1.84375 86.3207 1.84375V7.84375ZM86.9794 7.97643C87.0769 8.03379 87.1712 8.11517 87.2707 8.3112L92.6207 5.59505C92.0328 4.43692 91.1636 3.47662 90.0215 2.80482L86.9794 7.97643ZM87.275 8.31955C87.3573 8.48046 87.4614 8.79238 87.4614 9.35938H93.4614C93.4614 8.06178 93.2217 6.76954 92.6165 5.5867L87.275 8.31955ZM87.4614 9.35938V17H93.4614V9.35938H87.4614ZM90.4614 14H87.1332V20H90.4614V14ZM90.1332 17V9.95312H84.1332V17H90.1332ZM90.1332 9.9744C90.1421 8.7218 89.8161 7.32605 88.7741 6.19838L84.3674 10.2704C84.243 10.1357 84.1754 9.99758 84.1453 9.90577C84.119 9.82545 84.1341 9.8205 84.1333 9.93185L90.1332 9.9744ZM88.7868 6.21222C87.7343 5.05886 86.343 4.60938 85.0004 4.60938V10.6094C85.0221 10.6094 84.9332 10.6125 84.7836 10.553C84.6227 10.4889 84.4704 10.3833 84.3547 10.2565L88.7868 6.21222ZM85.0004 4.60938C84.11 4.60938 83.1961 4.80499 82.3459 5.28159L85.2799 10.5153C85.2061 10.5567 85.1351 10.5824 85.0772 10.5965C85.0211 10.6102 84.9921 10.6094 85.0004 10.6094V4.60938ZM82.3288 5.29124C81.4533 5.78964 80.7953 6.51211 80.3556 7.35577L85.6765 10.1286C85.6548 10.1702 85.6123 10.2381 85.5408 10.3138C85.4683 10.3906 85.3841 10.4561 85.297 10.5056L82.3288 5.29124ZM80.3482 7.37014C79.8992 8.24317 79.7359 9.16698 79.7271 10.0322L85.7268 10.0928C85.7277 10.0117 85.7353 9.98013 85.7337 9.98731C85.7318 9.99629 85.7201 10.0439 85.6839 10.1142L80.3482 7.37014Z" fill="white"/>
</svg>
