<svg width="30" height="30" viewBox="0 0 30 30" fill="none" xmlns="http://www.w3.org/2000/svg">
<g opacity="0.5">
<path fill-rule="evenodd" clip-rule="evenodd" d="M16.8183 3.01234L5.06681 4.17793C3.72535 4.3097 2.89187 5.40776 3.01261 6.51004L4.24484 17.6179L4.24507 17.62C4.32369 18.3081 4.51089 18.7744 4.74613 19.0488C4.93151 19.265 5.2589 19.4998 6.01461 19.4998V22.4999C4.50617 22.4999 3.29938 21.9704 2.46868 21.0015C1.6881 20.0911 1.37743 18.952 1.26416 17.9574L0.0306785 6.83837C-0.286489 3.95178 1.89449 1.47547 4.77137 1.19244L16.5236 0.0267911C19.3584 -0.251701 22.0629 1.66706 22.3816 4.56783L22.3905 4.64951V5.99955H19.3906V4.82596C19.2338 3.76787 18.1725 2.87965 16.8183 3.01234ZM12.6306 10.4996C11.4624 10.4996 10.5004 11.4617 10.5004 12.63V24.8696C10.5004 26.0379 11.4624 26.9999 12.6306 26.9999H24.8954C26.0675 26.9999 27.0148 26.0384 26.9999 24.8891L26.9996 24.8696L26.9998 12.63C26.9998 11.4617 26.0377 10.4996 24.8695 10.4996H12.6306ZM7.5004 12.63C7.5004 9.80488 9.80554 7.49958 12.6306 7.49958H24.8695C27.6946 7.49958 29.9997 9.80488 29.9997 12.63V24.8607C30.0308 27.6999 27.7132 30 24.8954 30H12.6306C9.80554 30 7.5004 27.6947 7.5004 24.8696V12.63Z" fill="white"/>
<path d="M17.2502 22.4999V14.9997L23.2501 18.7498L17.2502 22.4999Z" fill="white"/>
</g>
</svg>
