<svg width="40" height="33" viewBox="0 0 40 33" fill="none" xmlns="http://www.w3.org/2000/svg">
<g filter="url(#filter0_d_4_342)">
<path d="M13.2501 8.49998V13M11.0001 10.75H15.5001M17.2476 2.17L18.0006 2.70099C18.5853 3.11465 19.2839 3.33679 20.0001 3.33679C20.7163 3.33679 21.4149 3.11465 21.9996 2.70099L22.7526 2.1685C23.8271 1.40805 25.1111 0.999783 26.4275 1H27.3455C27.953 1 28.565 1.0375 29.1365 1.24C32.711 2.509 35.168 7.14248 34.991 17.6544C34.955 19.7724 34.46 22.1124 32.549 23.0259C31.8971 23.3393 31.1829 23.5014 30.4595 23.4999C29.6465 23.5133 28.8479 23.2851 28.1645 22.8444C26.7921 21.9459 25.7886 20.4444 24.3336 19.6914C23.4576 19.2372 22.4853 19 21.4986 18.9999H18.5001C17.5131 18.9999 16.5411 19.2369 15.6651 19.6899C14.2101 20.4459 13.2051 21.9459 11.8356 22.8444C11.1523 23.2851 10.3536 23.5133 9.54061 23.4999C8.81729 23.5014 8.103 23.3393 7.45111 23.0259C5.54012 22.1124 5.04512 19.7709 5.00912 17.6544C4.83062 7.14248 7.28911 2.509 10.8636 1.24C11.4351 1.0375 12.0501 1 12.6546 1H13.5726C14.8896 1 16.1736 1.408 17.2476 2.17Z" stroke="#888888" stroke-width="2" stroke-linecap="round"/>
<path d="M30.5 10.375C30.5 10.6734 30.3815 10.9595 30.1705 11.1705C29.9595 11.3815 29.6733 11.5 29.375 11.5C29.0766 11.5 28.7905 11.3815 28.5795 11.1705C28.3685 10.9595 28.25 10.6734 28.25 10.375C28.25 10.0766 28.3685 9.79047 28.5795 9.5795C28.7905 9.36852 29.0766 9.24999 29.375 9.24999C29.6733 9.24999 29.9595 9.36852 30.1705 9.5795C30.3815 9.79047 30.5 10.0766 30.5 10.375ZM26 10.375C26 10.6734 25.8815 10.9595 25.6705 11.1705C25.4595 11.3815 25.1734 11.5 24.875 11.5C24.5766 11.5 24.2905 11.3815 24.0795 11.1705C23.8685 10.9595 23.75 10.6734 23.75 10.375C23.75 10.0766 23.8685 9.79047 24.0795 9.5795C24.2905 9.36852 24.5766 9.24999 24.875 9.24999C25.1734 9.24999 25.4595 9.36852 25.6705 9.5795C25.8815 9.79047 26 10.0766 26 10.375ZM27.125 7C27.4234 7 27.7095 7.11853 27.9205 7.3295C28.1315 7.54048 28.25 7.82663 28.25 8.125C28.25 8.42336 28.1315 8.70951 27.9205 8.92049C27.7095 9.13147 27.4234 9.24999 27.125 9.24999C26.8266 9.24999 26.5405 9.13147 26.3295 8.92049C26.1185 8.70951 26 8.42336 26 8.125C26 7.82663 26.1185 7.54048 26.3295 7.3295C26.5405 7.11853 26.8266 7 27.125 7ZM27.125 11.5C27.2727 11.5 27.419 11.5291 27.5555 11.5856C27.692 11.6422 27.816 11.725 27.9205 11.8295C28.0249 11.934 28.1078 12.058 28.1643 12.1945C28.2209 12.331 28.25 12.4772 28.25 12.625C28.25 12.7727 28.2209 12.919 28.1643 13.0555C28.1078 13.192 28.0249 13.316 27.9205 13.4205C27.816 13.5249 27.692 13.6078 27.5555 13.6643C27.419 13.7209 27.2727 13.75 27.125 13.75C26.8266 13.75 26.5405 13.6315 26.3295 13.4205C26.1185 13.2095 26 12.9233 26 12.625C26 12.3266 26.1185 12.0405 26.3295 11.8295C26.5405 11.6185 26.8266 11.5 27.125 11.5Z" fill="#777777"/>
</g>
<defs>
<filter id="filter0_d_4_342" x="0" y="0" width="40" height="32.5005" filterUnits="userSpaceOnUse" color-interpolation-filters="sRGB">
<feFlood flood-opacity="0" result="BackgroundImageFix"/>
<feColorMatrix in="SourceAlpha" type="matrix" values="0 0 0 0 0 0 0 0 0 0 0 0 0 0 0 0 0 0 127 0" result="hardAlpha"/>
<feOffset dy="4"/>
<feGaussianBlur stdDeviation="2"/>
<feComposite in2="hardAlpha" operator="out"/>
<feColorMatrix type="matrix" values="0 0 0 0 0 0 0 0 0 0 0 0 0 0 0 0 0 0 0.25 0"/>
<feBlend mode="normal" in2="BackgroundImageFix" result="effect1_dropShadow_4_342"/>
<feBlend mode="normal" in="SourceGraphic" in2="effect1_dropShadow_4_342" result="shape"/>
</filter>
</defs>
</svg>
