<svg width="28" height="27" viewBox="0 0 28 27" fill="none" xmlns="http://www.w3.org/2000/svg">
<path d="M12.4911 0.510082C12.9128 0.18074 13.4474 0 14 0C14.5526 0 15.0872 0.18074 15.5089 0.510082L27.1756 9.63914C27.4339 9.84114 27.6415 10.0926 27.7838 10.376C27.9262 10.6595 28 10.9681 28 11.2804V24.771C28 25.3418 27.7542 25.8892 27.3166 26.2928C26.879 26.6963 26.2855 26.9231 25.6667 26.9231H16.7222C16.4128 26.9231 16.1161 26.8097 15.8973 26.6079C15.6785 26.4061 15.5556 26.1324 15.5556 25.847V16.8801H12.4444V25.847C12.4444 26.1324 12.3215 26.4061 12.1027 26.6079C11.8839 26.8097 11.5872 26.9231 11.2778 26.9231H2.33333C1.7145 26.9231 1.121 26.6963 0.683418 26.2928C0.245833 25.8892 0 25.3418 0 24.771V11.2804C0 10.6492 0.301778 10.048 0.824444 9.63914L12.4911 0.510082ZM14 2.15139L2.33333 11.2804V24.771H10.1111V15.8041C10.1111 15.5187 10.234 15.245 10.4528 15.0432C10.6716 14.8414 10.9684 14.7281 11.2778 14.7281H16.7222C17.0316 14.7281 17.3284 14.8414 17.5472 15.0432C17.766 15.245 17.8889 15.5187 17.8889 15.8041V24.771H25.6667V11.2804L14 2.15139Z" fill="#888888"/>
</svg>
