<svg width="26" height="26" viewBox="0 0 26 26" fill="none" xmlns="http://www.w3.org/2000/svg">
<path fill-rule="evenodd" clip-rule="evenodd" d="M13 23.111C18.5842 23.111 23.111 18.5842 23.111 13C23.111 7.41579 18.5842 2.8889 13 2.8889C7.41579 2.8889 2.8889 7.41579 2.8889 13C2.8889 18.5842 7.41579 23.111 13 23.111ZM13 26C20.1796 26 26 20.1796 26 13C26 5.8203 20.1796 0 13 0C5.8203 0 0 5.8203 0 13C0 20.1796 5.8203 26 13 26Z" fill="#FFFEFE"/>
<path d="M13.8752 18.7595H12.1174V9.48106H13.8752V18.7595ZM12.0127 7.02303C12.0127 6.67069 12.0974 6.39944 12.267 6.20928C12.4415 6.01913 12.6883 5.92405 13.0075 5.92405C13.3166 5.92405 13.556 6.01913 13.7256 6.20928C13.9001 6.39944 13.9874 6.67069 13.9874 7.02303C13.9874 7.35859 13.9001 7.62425 13.7256 7.82001C13.556 8.01016 13.3166 8.10524 13.0075 8.10524C12.6883 8.10524 12.4415 8.01016 12.267 7.82001C12.0974 7.62425 12.0127 7.35859 12.0127 7.02303Z" fill="#FFFEFE"/>
</svg>
