<svg width="23" height="28" viewBox="0 0 23 28" fill="none" xmlns="http://www.w3.org/2000/svg">
<path d="M22.6929 5.20286C22.5904 5.08583 22.4648 4.9912 22.3241 4.92491C22.1834 4.85862 22.0305 4.82209 21.875 4.8176C19.4592 4.75445 16.4024 2.17133 14.3814 1.15767C13.133 0.533466 12.3088 0.121894 11.6899 0.013475C11.5642 -0.00483781 11.4365 -0.0044831 11.311 0.0145276C10.692 0.122947 9.86783 0.534519 8.62048 1.15872C6.59947 2.17133 3.54268 4.75445 1.12693 4.8176C0.971324 4.82232 0.818344 4.85895 0.677475 4.92522C0.536605 4.99149 0.410848 5.08599 0.307999 5.20286C0.0948161 5.44405 -0.0151752 5.75928 0.00168834 6.08074C0.520626 16.6311 4.30477 23.1604 10.9447 26.9551C11.1173 27.053 11.3089 27.1035 11.4994 27.1035C11.6899 27.1035 11.8815 27.053 12.0552 26.9551C18.695 23.1604 22.4781 16.6311 22.9981 6.08074C23.016 5.75933 22.9063 5.44386 22.6929 5.20286ZM17.413 9.35226L11.8099 17.6205C11.6088 17.9174 11.2931 18.1142 10.9804 18.1142C10.6668 18.1142 10.3183 17.9426 10.0984 17.7226L6.14895 13.7722C6.02 13.6428 5.94761 13.4675 5.94761 13.2848C5.94761 13.1021 6.02 12.9269 6.14895 12.7975L7.12472 11.8196C7.25441 11.6912 7.42956 11.6191 7.61208 11.6191C7.7946 11.6191 7.96975 11.6912 8.09944 11.8196L10.6678 14.388L15.1298 7.80176C15.2331 7.65105 15.3918 7.5473 15.5712 7.51318C15.7507 7.47906 15.9364 7.51734 16.0877 7.61966L17.2298 8.39438C17.3807 8.49746 17.4846 8.65606 17.519 8.83554C17.5533 9.01502 17.5152 9.20079 17.413 9.35226Z" fill="#2376CF"/>
</svg>
