<svg width="20" height="25" viewBox="0 0 20 25" fill="none" xmlns="http://www.w3.org/2000/svg">
<path d="M2.8125 0C2.06658 0 1.35121 0.296316 0.823762 0.823762C0.296316 1.35121 0 2.06658 0 2.8125V22.1875C0 22.9334 0.296316 23.6488 0.823762 24.1762C1.35121 24.7037 2.06658 25 2.8125 25H17.1875C17.5568 25 17.9226 24.9273 18.2638 24.7859C18.605 24.6446 18.9151 24.4374 19.1762 24.1762C19.4374 23.9151 19.6446 23.605 19.7859 23.2638C19.9273 22.9226 20 22.5568 20 22.1875V2.8125C20 2.44316 19.9273 2.07743 19.7859 1.7362C19.6446 1.39497 19.4374 1.08493 19.1762 0.823762C18.9151 0.562597 18.605 0.35543 18.2638 0.214089C17.9226 0.0727475 17.5568 0 17.1875 0H2.8125ZM1.875 2.8125C1.875 2.56386 1.97377 2.3254 2.14959 2.14959C2.3254 1.97377 2.56386 1.875 2.8125 1.875H17.1875C17.4361 1.875 17.6746 1.97377 17.8504 2.14959C18.0262 2.3254 18.125 2.56386 18.125 2.8125V22.1875C18.125 22.4361 18.0262 22.6746 17.8504 22.8504C17.6746 23.0262 17.4361 23.125 17.1875 23.125H2.8125C2.56386 23.125 2.3254 23.0262 2.14959 22.8504C1.97377 22.6746 1.875 22.4361 1.875 22.1875V2.8125ZM4.6875 5.625C4.43886 5.625 4.2004 5.72377 4.02459 5.89959C3.84877 6.0754 3.75 6.31386 3.75 6.5625C3.75 6.81114 3.84877 7.0496 4.02459 7.22541C4.2004 7.40123 4.43886 7.5 4.6875 7.5H15.3125C15.5611 7.5 15.7996 7.40123 15.9754 7.22541C16.1512 7.0496 16.25 6.81114 16.25 6.5625C16.25 6.31386 16.1512 6.0754 15.9754 5.89959C15.7996 5.72377 15.5611 5.625 15.3125 5.625H4.6875ZM3.75 17.8125C3.75 17.5639 3.84877 17.3254 4.02459 17.1496C4.2004 16.9738 4.43886 16.875 4.6875 16.875H15.3125C15.5611 16.875 15.7996 16.9738 15.9754 17.1496C16.1512 17.3254 16.25 17.5639 16.25 17.8125C16.25 18.0611 16.1512 18.2996 15.9754 18.4754C15.7996 18.6512 15.5611 18.75 15.3125 18.75H4.6875C4.43886 18.75 4.2004 18.6512 4.02459 18.4754C3.84877 18.2996 3.75 18.0611 3.75 17.8125ZM4.6875 11.25C4.43886 11.25 4.2004 11.3488 4.02459 11.5246C3.84877 11.7004 3.75 11.9389 3.75 12.1875C3.75 12.4361 3.84877 12.6746 4.02459 12.8504C4.2004 13.0262 4.43886 13.125 4.6875 13.125H15.3125C15.5611 13.125 15.7996 13.0262 15.9754 12.8504C16.1512 12.6746 16.25 12.4361 16.25 12.1875C16.25 11.9389 16.1512 11.7004 15.9754 11.5246C15.7996 11.3488 15.5611 11.25 15.3125 11.25H4.6875Z" fill="#2376CF"/>
</svg>
